HIERARCHY
ROOT Elbow
{
	OFFSET	0.00	0.00	0.00
	CHANNELS 6 Xposition Yposition Zposition Zrotation Xrotation Yrotation
	JOINT L_Wrist
	{
		OFFSET	 0.208349	 0.000000	 0.000000
		CHANNELS 3 Zrotation Xrotation Yrotation
		JOINT L_index_Proximal
		{
			OFFSET	 0.093499	 0.010637	-0.002084
			CHANNELS 3 Zrotation Xrotation Yrotation
			JOINT L_index_b
			{
				OFFSET	 0.033152	 0.000000	 0.000000
				CHANNELS 3 Zrotation Xrotation Yrotation
				JOINT L_index_c
				{
					OFFSET	 0.018651	 0.000000	 0.000000
					CHANNELS 3 Zrotation Xrotation Yrotation
					End Site
					{
						OFFSET	 0.018651	 0.000000	 0.000000
					}
				}
			}
		}
		JOINT L_middle_Proximal
		{
			OFFSET	 0.090632	-0.006115	-0.003750
			CHANNELS 3 Zrotation Xrotation Yrotation
			JOINT L_middle_b
			{
				OFFSET	 0.037194	 0.000000	 0.000000
				CHANNELS 3 Zrotation Xrotation Yrotation
				JOINT L_middle_c
				{
					OFFSET	 0.021943	 0.000000	 0.000000
					CHANNELS 3 Zrotation Xrotation Yrotation
					End Site
					{
						OFFSET	 0.021943	 0.000000	 0.000000
					}
				}
			}
		}
		JOINT L_pinky_Proximal
		{
			OFFSET	 0.074015	-0.035449	-0.000417
			CHANNELS 3 Zrotation Xrotation Yrotation
			JOINT L_pinky_b
			{
				OFFSET	 0.027285	 0.000000	 0.000000
				CHANNELS 3 Zrotation Xrotation Yrotation
				JOINT L_pinky_c
				{
					OFFSET	 0.015093	 0.000000	 0.000000
					CHANNELS 3 Zrotation Xrotation Yrotation
					End Site
					{
						OFFSET	 0.015093	 0.000000	 0.000000
					}
				}
			}
		}
		JOINT L_ring_Proximal
		{
			OFFSET	 0.082801	-0.021859	-0.003750
			CHANNELS 3 Zrotation Xrotation Yrotation
			JOINT L_ring_b
			{
				OFFSET	 0.034478	 0.000000	 0.000000
				CHANNELS 3 Zrotation Xrotation Yrotation
				JOINT L_ring_c
				{
					OFFSET	 0.021377	 0.000000	 0.000000
					CHANNELS 3 Zrotation Xrotation Yrotation
					End Site
					{
						OFFSET	 0.021377	 0.000000	 0.000000
					}
				}
			}
		}
		JOINT L_thumb_Proximal
		{
			OFFSET	 0.030306	 0.018528	 0.004584
			CHANNELS 3 Zrotation Xrotation Yrotation
			JOINT L_thumb_a
			{
				OFFSET	 0.038520	 0.000000	 0.000000
				CHANNELS 3 Zrotation Xrotation Yrotation
				JOINT L_thumb_b
				{
					OFFSET	 0.026310	 0.000000	 0.000000
					CHANNELS 3 Zrotation Xrotation Yrotation
					End Site
					{
						OFFSET	 0.026310	 0.000000	 0.000000
					}
				}
			}
		}
	}
}
MOTION
Frames:    15
Frame Time: 0.01666667
-0.114468	-0.136016	 0.732315	 55.652730	 31.933570	-177.058800	 12.550050	 3.608521	 20.956350	 6.146661	-3.294112	-45.320380	-2.142097	 0.992048	-49.695660	-0.989642	 0.199481	-22.791990	-9.965446	-8.293898	-57.708550	-0.073976	 0.046339	-64.127070	-1.398826	 0.469007	-37.069190	-26.153550	-19.835420	-7.092716	 1.356406	-0.233075	-19.499020	 7.551749	-1.001208	-15.083140	-18.532030	-11.573710	-46.976410	-4.396223	 2.328339	-55.796540	-4.476269	 1.554538	-38.286720	 74.543410	 40.186090	-60.217600	-3.935555	 0.475225	-13.765460	-2.348746	 1.161235	-52.611210
-0.114587	-0.136210	 0.732817	 55.836360	 31.852560	-177.201300	 12.820860	 3.628088	 21.075650	 6.082247	-3.276077	-45.529560	-2.270469	 1.056016	-49.882790	-1.139705	 0.230535	-22.869520	-10.105750	-8.202361	-57.829460	-0.144388	 0.090846	-64.356700	-1.383834	 0.464868	-37.135800	-26.222270	-19.827260	-7.038412	 1.306862	-0.224099	-19.459770	 7.436995	-0.983902	-15.052250	-18.641420	-11.517260	-47.069230	-4.355906	 2.303280	-55.720800	-4.265741	 1.483333	-38.333960	 74.363200	 40.282140	-60.250840	-3.901592	 0.471505	-13.776290	-2.584115	 1.277175	-52.595170
-0.114702	-0.136215	 0.733049	 55.922770	 31.870170	-177.250400	 12.913610	 3.628605	 21.078730	 6.074536	-3.279277	-45.630620	-2.262637	 1.054115	-49.955170	-1.086317	 0.219803	-22.876520	-10.240800	-8.112787	-58.075710	-0.174731	 0.110404	-64.575250	-1.210211	 0.408327	-37.287410	-26.280510	-19.821320	-7.100558	 1.275169	-0.220013	-19.577330	 7.309968	-0.983053	-15.298300	-18.693520	-11.490350	-47.165290	-4.393994	 2.330078	-55.856090	-4.200315	 1.465671	-38.458070	 74.385630	 40.265350	-60.254240	-3.973942	 0.481975	-13.825230	-2.542578	 1.262618	-52.811040
-0.114819	-0.136259	 0.733181	 56.001170	 31.915210	-177.289700	 13.023410	 3.626806	 21.067770	 6.053316	-3.272839	-45.693700	-2.227113	 1.039889	-50.053390	-1.030558	 0.209074	-22.936040	-10.374820	-8.022921	-58.333350	-0.091996	 0.058399	-64.811420	-1.125888	 0.380095	-37.308450	-26.327360	-19.816270	-7.124617	 1.277513	-0.221629	-19.683060	 7.298460	-0.988212	-15.401690	-18.793240	-11.438530	-47.320960	-4.386277	 2.338937	-56.119880	-3.997320	 1.407165	-38.774210	 74.364070	 40.231080	-60.329810	-3.989554	 0.483367	-13.810810	-2.540806	 1.261473	-52.801800
-0.114826	-0.136295	 0.733426	 56.088030	 32.064840	-177.342800	 13.195660	 3.623721	 21.048920	 6.062610	-3.277295	-45.689160	-2.228700	 1.046315	-50.293270	-1.007165	 0.204135	-22.914510	-10.605400	-7.863638	-58.976810	 0.186879	-0.119978	-65.403830	-0.943415	 0.317504	-37.200370	-26.392880	-19.808410	-7.053856	 1.298460	-0.225640	-19.715430	 7.372190	-0.992225	-15.310340	-18.969270	-11.345580	-47.881360	-4.378336	 2.366036	-56.756840	-3.853699	 1.374917	-39.258660	 74.456790	 40.120690	-60.407460	-4.002355	 0.480720	-13.692640	-2.478986	 1.237085	-53.035530
-0.114780	-0.136212	 0.733508	 56.107500	 32.186250	-177.363300	 13.251690	 3.619661	 21.024180	 6.070647	-3.281119	-45.684920	-2.244727	 1.054977	-50.340760	-1.005642	 0.203196	-22.845610	-10.705060	-7.793869	-59.236120	 0.236486	-0.152391	-65.595770	-0.903105	 0.303753	-37.179580	-26.383010	-19.809190	-7.014058	 1.346328	-0.233847	-19.706210	 7.366133	-0.990349	-15.294060	-19.009300	-11.323910	-48.107360	-4.360098	 2.367028	-56.977280	-3.849952	 1.380328	-39.436460	 74.512000	 40.047760	-60.464480	-4.005221	 0.479205	-13.640130	-2.499357	 1.247255	-53.035890
-0.114753	-0.135944	 0.733640	 56.174040	 32.411480	-177.403900	 13.359350	 3.607579	 20.950460	 6.079026	-3.281816	-45.634000	-2.266648	 1.063985	-50.287120	-0.973261	 0.195076	-22.666700	-10.890610	-7.661613	-59.753150	 0.243936	-0.157788	-65.794940	-0.874378	 0.293530	-37.114110	-26.346100	-19.811850	-6.832382	 1.385272	-0.240993	-19.736920	 7.423193	-0.995559	-15.256490	-19.085670	-11.282060	-48.512180	-4.348232	 2.373901	-57.248180	-3.834754	 1.380561	-39.587070	 74.642260	 39.875800	-60.597280	-3.999971	 0.473824	-13.505730	-2.469748	 1.228740	-52.897010
-0.114812	-0.135731	 0.733728	 56.227390	 32.493480	-177.456100	 13.402230	 3.606025	 20.940940	 6.114610	-3.301054	-45.647950	-2.226109	 1.044461	-50.266390	-0.978840	 0.195750	-22.617500	-10.977580	-7.597948	-60.042000	 0.230893	-0.149978	-66.012570	-0.820269	 0.275792	-37.166740	-26.326440	-19.813730	-6.796618	 1.411940	-0.245325	-19.712810	 7.480012	-0.998209	-15.181470	-19.135480	-11.254470	-48.760980	-4.409311	 2.421032	-57.523140	-3.732940	 1.348707	-39.718090	 74.727930	 39.776310	-60.662630	-3.987668	 0.471943	-13.493870	-2.464061	 1.229102	-53.015740
-0.114881	-0.135489	 0.733860	 56.292250	 32.557810	-177.479900	 13.445610	 3.604845	 20.933700	 6.163879	-3.330038	-45.699800	-2.178621	 1.020148	-50.178910	-0.980680	 0.195565	-22.555040	-11.064380	-7.533608	-60.337360	 0.195572	-0.127445	-66.181710	-0.767805	 0.258218	-37.175500	-26.307610	-19.815570	-6.770648	 1.427159	-0.247969	-19.711960	 7.499745	-0.999571	-15.162310	-19.195540	-11.221140	-48.989230	-4.442833	 2.450961	-57.751040	-3.672215	 1.328517	-39.766920	 74.785870	 39.699260	-60.721360	-3.991014	 0.471022	-13.456280	-2.461808	 1.225124	-52.909200
-0.115165	-0.135179	 0.734250	 56.375960	 32.592850	-177.505000	 13.529530	 3.612807	 20.982370	 6.256434	-3.372915	-45.636350	-2.188183	 1.020984	-50.022360	-1.008611	 0.201254	-22.568150	-11.303340	-7.352751	-61.155120	 0.076069	-0.050017	-66.657190	-0.691014	 0.232402	-37.178380	-26.319400	-19.814230	-6.764983	 1.366730	-0.240349	-19.947140	 7.478775	-1.003273	-15.260150	-19.253280	-11.187420	-49.464740	-4.473303	 2.498140	-58.345870	-3.688759	 1.334374	-39.763040	 74.884300	 39.606020	-60.763170	-4.054554	 0.478102	-13.444720	-2.574479	 1.277416	-52.773970
-0.115248	-0.135171	 0.734370	 56.385260	 32.575340	-177.516000	 13.533180	 3.615889	 21.001080	 6.266859	-3.375333	-45.595930	-2.212881	 1.033825	-50.078300	-1.032703	 0.206251	-22.589110	-11.396970	-7.281886	-61.415310	 0.003398	-0.002250	-66.884450	-0.645490	 0.217125	-37.182230	-26.345830	-19.811370	-6.767414	 1.356176	-0.239425	-20.023360	 7.478372	-1.002866	-15.254740	-19.279330	-11.172370	-49.619840	-4.476830	 2.509979	-58.538020	-3.662787	 1.325328	-39.773010	 74.902030	 39.590980	-60.767910	-4.082746	 0.482141	-13.464530	-2.574749	 1.278248	-52.798920
-0.115531	-0.135200	 0.734656	 56.401870	 32.546270	-177.538400	 13.551410	 3.622425	 21.040940	 6.319582	-3.399101	-45.551560	-2.216882	 1.036801	-50.125180	-1.040411	 0.207821	-22.591180	-11.499200	-7.202599	-61.745850	 0.045736	-0.030395	-67.212010	-0.604958	 0.203060	-37.109700	-26.365480	-19.809560	-6.809188	 1.343873	-0.238494	-20.125750	 7.469509	-1.003452	-15.281500	-19.315230	-11.151080	-49.896350	-4.461230	 2.515573	-58.818200	-3.641975	 1.320158	-39.838800	 74.903280	 39.591450	-60.765890	-4.165373	 0.493225	-13.499980	-2.554284	 1.270265	-52.877150
-0.115618	-0.135381	 0.734729	 56.393570	 32.564200	-177.529500	 13.564370	 3.625082	 21.057180	 6.323266	-3.402054	-45.566260	-2.222553	 1.040549	-50.171220	-1.028017	 0.205380	-22.595870	-11.540840	-7.169917	-61.884730	 0.102188	-0.068083	-67.347710	-0.552690	 0.185378	-37.082440	-26.339540	-19.812790	-6.858813	 1.392196	-0.247875	-20.189900	 7.508708	-1.007737	-15.266630	-19.339470	-11.136890	-50.030790	-4.463208	 2.523928	-58.959050	-3.595718	 1.306341	-39.922210	 74.925750	 39.565550	-60.782310	-4.171606	 0.494636	-13.518090	-2.546669	 1.268909	-52.964800
-0.115971	-0.135583	 0.734833	 56.382100	 32.548220	-177.511600	 13.599180	 3.629015	 21.081050	 6.332754	-3.406392	-45.558900	-2.233644	 1.048151	-50.272820	-0.988566	 0.198228	-22.676810	-11.617990	-7.109256	-62.131640	 0.098294	-0.065706	-67.528600	-0.543274	 0.182206	-37.081880	-26.353510	-19.812810	-7.052748	 1.374790	-0.247132	-20.380730	 7.429142	-1.009263	-15.451770	-19.391610	-11.106370	-50.286840	-4.469712	 2.543409	-59.265430	-3.520716	 1.283497	-40.049050	 74.901690	 39.618390	-60.726610	-4.236468	 0.504064	-13.564590	-2.487447	 1.246513	-53.227830
-0.116013	-0.135729	 0.734917	 56.379890	 32.517940	-177.524800	 13.603030	 3.632526	 21.102600	 6.322013	-3.399591	-45.541400	-2.255522	 1.059728	-50.327410	-1.005542	 0.202001	-22.716790	-11.653140	-7.079290	-62.322590	 0.099719	-0.066755	-67.600480	-0.488950	 0.163943	-37.072870	-26.359700	-19.812760	-7.137316	 1.363066	-0.245805	-20.443760	 7.474442	-1.016605	-15.469340	-19.423750	-11.087080	-50.484370	-4.467812	 2.555444	-59.519310	-3.447549	 1.259373	-40.124410	 74.880700	 39.649570	-60.700590	-4.238223	 0.505887	-13.607250	-2.505765	 1.258039	-53.313610
